# xmcd
#
# Track frame offsets: 
#        187
#        14877
#        31520
#        43430
#        57965
#        71897
#        84050
#        97500
#        109537
#        119632
#        130652
#        144337
#        158045
#        172977
#        184592
#        195857
#        208597
#        220625
#        230620
#        244155
#
# Disc length: 3398 seconds
#
# Revision: 0
# Processed by: cddbd v1.5.1PL2 Copyright (c) Steve Scherf et al.
# Submitted via: ExactAudioCopy v0.95b3
#
DISCID=060d4414
DTITLE=Various Artist - RCA Country Golden Era Vol.3
DYEAR=1900
DGENRE=Country
TTITLE0=Sweet Memories - Willie Nelson
TTITLE1=For The Good Times - Jimmy Dean&Dottie West
TTITLE2=I Love You Because - Jim Reeves
TTITLE3=Kaw-Liga - Charley Pride
TTITLE4=I'll Be Your San Antone Rose - Dottsy
TTITLE5=Never Ending Song Of Love - Dicky Lee
TTITLE6=Guitar Man - Jerry Reed
TTITLE7=Funny How Time Slips Away - Willie Nelson
TTITLE8=Is Anybody Goin' To San Antone - Charley Pride
TTITLE9=Take Me Home, Country Road - Skeeter Davis
TTITLE10=My Tennessee Mountain Home - Dolly Parton
TTITLE11=Good Hearted Woman - Willie Nelson
TTITLE12=Luckenback Texas - Waylon Jennings
TTITLE13=Here Comes My Baby - Dottie West
TTITLE14=Whiskey River - Johnny Bush
TTITLE15=East Bound And Down - Jerry Reed
TTITLE16=Jolene - Dolly Parton
TTITLE17=Making Plans - Dolly Parton&Porter Wagoner
TTITLE18=(I'm A)Stand By My Woman - Ronnie Milsap
TTITLE19=Green, Green Glass Of Home - Porter Wagoner
EXTD=
EXTT0=
EXTT1=
EXTT2=
EXTT3=
EXTT4=
EXTT5=
EXTT6=
EXTT7=
EXTT8=
EXTT9=
EXTT10=
EXTT11=
EXTT12=
EXTT13=
EXTT14=
EXTT15=
EXTT16=
EXTT17=
EXTT18=
EXTT19=
PLAYORDER=
